PathFileType	4	(X/Y/Z)	outputs\dynamic_markers.trc
DataRate	CameraRate	NumFrames	NumMarkers	Units	OrigDataRate	OrigDataStartFrame	OrigNumFrames
360.000000	360.000000	4	45	m	360.000000	459	612
Frame#	Time	C7			CLAV			LANK			LASI			LBHD			LELB			LFHD			LFIN			LFRM			LHEE			LKNE			LMANK			LMELB			LMKNE			LPSI			LSHO			LTHI			LTIB			LTOE			LUPA			LWRA			LWRB			RANK			RASI			RBAK			RBHD			RELB			RFHD			RFIN			RFRM			RHEE			RKNE			RMANK			RMELB			RMKNE			RPSI			RSHO			RTHI			RTIB			RTOE			RUPA			RWRA			RWRB			STRN			T10			
		X1	Y1	Z1	X2	Y2	Z2	X3	Y3	Z3	X4	Y4	Z4	X5	Y5	Z5	X6	Y6	Z6	X7	Y7	Z7	X8	Y8	Z8	X9	Y9	Z9	X10	Y10	Z10	X11	Y11	Z11	X12	Y12	Z12	X13	Y13	Z13	X14	Y14	Z14	X15	Y15	Z15	X16	Y16	Z16	X17	Y17	Z17	X18	Y18	Z18	X19	Y19	Z19	X20	Y20	Z20	X21	Y21	Z21	X22	Y22	Z22	X23	Y23	Z23	X24	Y24	Z24	X25	Y25	Z25	X26	Y26	Z26	X27	Y27	Z27	X28	Y28	Z28	X29	Y29	Z29	X30	Y30	Z30	X31	Y31	Z31	X32	Y32	Z32	X33	Y33	Z33	X34	Y34	Z34	X35	Y35	Z35	X36	Y36	Z36	X37	Y37	Z37	X38	Y38	Z38	X39	Y39	Z39	X40	Y40	Z40	X41	Y41	Z41	X42	Y42	Z42	X43	Y43	Z43	X44	Y44	Z44	X45	Y45	Z45	

460	1.275	1.132776975631714	1.252728819847107	-0.04421791434288025	1.241112351417542	1.264486312866211	0.09227282553911209	1.668425917625427	-0.008235909976065159	0.04014311730861664	1.235566139221191	0.7299856543540955	0.06176064163446426	1.119938015937805	1.413334846496582	-0.08765093237161636	1.390820145606995	0.9390729069709778	-0.2863941788673401	1.25253427028656	1.493264317512512	-0.0631120353937149	1.569828152656555	0.9225038290023804	0.04954556375741959	1.500128149986267	0.9445571899414062	-0.1812810748815536	1.592094421386719	-0.006259352434426546	0.07686103880405426	1.554051518440247	0.4568853676319122	0.07343640923500061	1.641600251197815	-0.01660902053117752	0.1425182372331619	1.326742887496948	0.8925774097442627	-0.2503622174263	1.524001359939575	0.438329666852951	0.1797352880239487	1.014646768569946	0.7931752800941467	0.09426069259643555	1.314786434173584	1.242457270622253	-0.08720473945140839	1.418081402778625	0.5265981554985046	0.01319653168320656	1.572616696357727	0.3496855497360229	0.03579647466540337	1.815522789955139	-0.02672037854790688	0.1273704916238785	1.392170906066895	1.076088428497314	-0.2057826370000839	1.561707139015198	0.9381459355354309	-0.07897984236478806	1.535804510116577	0.8596447110176086	-0.06524467468261719	0.3767332434654236	0.1684479266405106	0.3444678783416748	1.210263013839722	0.7075353860855103	0.27996626496315	1.032327771186829	1.025833368301392	0.1405711472034454	1.08015239238739	1.441665053367615	0.03200158849358559	0.7153446674346924	1.143468260765076	0.1635746508836746	1.207265138626099	1.525930523872375	0.06462396681308746	0.7372809052467346	1.34950590133667	-0.1107112467288971	0.7372937202453613	1.250967979431152	0.03106536529958248	0.4105205237865448	0.2219628244638443	0.272016704082489	0.8634518980979919	0.2793987095355988	0.3389486074447632	0.3766597509384155	0.1199285089969635	0.2405655235052109	0.7127036452293396	1.190348625183105	0.2433522790670395	0.8338121771812439	0.260632187128067	0.2212734222412109	1.015559315681458	0.8056299686431885	0.1759280115365982	1.023555755615234	1.216001033782959	0.04290082678198814	1.030443072319031	0.5218890905380249	0.3354635834693909	0.6953968405723572	0.2376334220170975	0.3639315068721771	0.304215133190155	0.01398821827024221	0.3048964142799377	0.8628871440887451	1.184974312782288	0.09377000480890274	0.7839620113372803	1.336920619010925	-0.03639183565974236	0.7017298936843872	1.356328010559082	-0.02365101687610149	1.320128202438354	1.066016435623169	0.1882382482290268	1.084440350532532	0.9401051998138428	0.1047348752617836	
461	1.277777777777778	1.140478372573853	1.248459696769714	-0.04784489795565605	1.254191637039185	1.260537147521973	0.08350739628076553	1.66860818862915	-0.008607843890786171	0.03900883346796036	1.234136462211609	0.7312416434288025	0.05770284682512283	1.129402875900269	1.409875392913818	-0.0941634401679039	1.388458251953125	0.9184657335281372	-0.2874949276447296	1.262852787971497	1.489790678024292	-0.07341812551021576	1.574837446212769	0.9155647754669189	0.04523099958896637	1.499679684638977	0.9277387261390686	-0.184839740395546	1.592323303222656	-0.006525812670588493	0.07597088068723679	1.551435351371765	0.458403468132019	0.07259093225002289	1.642164587974548	-0.01597874239087105	0.1412148326635361	1.324391007423401	0.8745355606079102	-0.2476281523704529	1.525032520294189	0.4406098127365112	0.1783731877803802	1.015929341316223	0.795595109462738	0.09915292263031006	1.319604754447937	1.232277154922485	-0.09949697554111481	1.416136384010315	0.5303147435188293	0.01193487830460072	1.569680452346802	0.3483901619911194	0.03518202155828476	1.815834403038025	-0.02695184201002121	0.126545637845993	1.393249988555908	1.058541536331177	-0.2133979797363281	1.563001155853271	0.9250385165214539	-0.08310771733522415	1.53597104549408	0.8481159210205078	-0.06539583206176758	0.3788568377494812	0.1702978610992432	0.345839649438858	1.217496275901794	0.7074981331825256	0.2756081223487854	1.044488072395325	1.028660655021667	0.1475230157375336	1.092766284942627	1.438884377479553	0.02637588791549206	0.7319700717926025	1.155259847640991	0.1935825794935226	1.220974087715149	1.523154258728027	0.05531563609838486	0.7435973286628723	1.334750413894653	-0.1003397330641747	0.7482455968856812	1.250091195106506	0.0506664477288723	0.4130513966083527	0.2250917851924896	0.2744454443454742	0.8658275008201599	0.2809904813766479	0.3405410647392273	0.3801061511039734	0.1233740374445915	0.2414537072181702	0.7354999184608459	1.209632992744446	0.2690896987915039	0.8358939290046692	0.262602686882019	0.2223289906978607	1.019302606582642	0.8076865673065186	0.1807036548852921	1.03355884552002	1.215624094009399	0.04756053909659386	1.035618543624878	0.5228805541992188	0.333682656288147	0.6981778740882874	0.2393408864736557	0.3653598129749298	0.3077404499053955	0.01606175117194653	0.3032080233097076	0.8752938508987427	1.188785910606384	0.1116583198308945	0.7932893037796021	1.328291893005371	-0.02663793228566647	0.7119564414024353	1.349993109703064	-0.01199599821120501	1.33335554599762	1.06204354763031	0.1780479997396469	1.089082479476929	0.9417557120323181	0.1081667095422745	
462	1.280555555555556	1.147855401039124	1.244461417198181	-0.0514356940984726	1.267170906066895	1.256431698799133	0.07425618916749954	1.668384790420532	-0.008863754570484161	0.03804372251033783	1.232741713523865	0.7325611710548401	0.05375843867659569	1.138877987861633	1.406327128410339	-0.100536622107029	1.386273264884949	0.8984506130218506	-0.2874565124511719	1.272950649261475	1.48607075214386	-0.08351700752973557	1.579894781112671	0.9090047478675842	0.04119112342596054	1.499286532402039	0.9111781120300293	-0.1871287375688553	1.592467069625854	-0.006950742565095425	0.07562793046236038	1.548396229743958	0.4585914611816406	0.07139814645051956	1.642383337020874	-0.01578309386968613	0.1406356543302536	1.32217264175415	0.857309877872467	-0.2444563508033752	1.525882244110107	0.4427334070205688	0.1776818931102753	1.017270684242249	0.7979950308799744	0.1039941981434822	1.323440432548523	1.222028255462646	-0.1112537384033203	1.414307355880737	0.5326870679855347	0.01156460773199797	1.566110491752625	0.3476453423500061	0.03388319909572601	1.815990209579468	-0.02718544192612171	0.126252144575119	1.393852710723877	1.041152477264404	-0.2201656401157379	1.56434428691864	0.9126167297363281	-0.08693891763687134	1.536451578140259	0.8372102379798889	-0.06486199796199799	0.3808263540267944	0.1720662266016006	0.3473343849182129	1.223788261413574	0.7075523138046265	0.2715114653110504	1.056897521018982	1.031479239463806	0.1537286341190338	1.105394005775452	1.436362385749817	0.02066690102219582	0.7514632940292358	1.168322443962097	0.2225726991891861	1.234448671340942	1.520429730415344	0.04596918076276779	0.7493563294410706	1.320681929588318	-0.08688941597938538	0.7606925368309021	1.24984884262085	0.07141260057687759	0.4155041873455048	0.2282068431377411	0.2771609127521515	0.8692418336868286	0.2820569574832916	0.34161576628685	0.3836464583873749	0.126880943775177	0.242267906665802	0.7610664367675781	1.229430198669434	0.2932859659194946	0.8384076952934265	0.2641313374042511	0.2235941886901855	1.022605657577515	0.8099157214164734	0.185243085026741	1.043824076652527	1.216087222099304	0.05182215571403503	1.04085648059845	0.5234886407852173	0.3321467638015747	0.7013052105903625	0.241036131978035	0.3668836355209351	0.3113806247711182	0.01820574514567852	0.3015799224376678	0.8890210390090942	1.194225668907166	0.1292408853769302	0.8024104833602905	1.320175647735596	-0.01474972348660231	0.7222011685371399	1.343777060508728	0.002027733251452446	1.345809698104858	1.058394551277161	0.1691244095563889	1.093521952629089	0.9435531497001648	0.1116720139980316	
463	1.283333333333333	1.152552247047424	1.241857886314392	-0.05371720716357231	1.275373101234436	1.253730773925781	0.06852829456329346	1.668058156967163	-0.00895233079791069	0.03758196532726288	1.231846332550049	0.7336579561233521	0.05144907534122467	1.145139455795288	1.404034852981567	-0.1048874258995056	1.38490617275238	0.885526716709137	-0.2870714366436005	1.279625296592712	1.483583211898804	-0.09040429443120956	1.58309531211853	0.904920220375061	0.0386788547039032	1.49895715713501	0.9008927345275879	-0.188793808221817	1.592502951622009	-0.00726332189515233	0.07571282982826233	1.546197295188904	0.4578046202659607	0.07062087953090668	1.64246141910553	-0.01598178595304489	0.14063860476017	1.32081937789917	0.8460347652435303	-0.2420347183942795	1.526366829872131	0.4436075091362	0.1771225035190582	1.018227219581604	0.7995533347129822	0.1071364209055901	1.325568437576294	1.215165495872498	-0.1187408119440079	1.413081526756287	0.5327523946762085	0.01159984711557627	1.563873648643494	0.3470733463764191	0.03297561407089233	1.816048264503479	-0.0273236446082592	0.126293733716011	1.39382791519165	1.029878973960876	-0.2244679182767868	1.565102338790894	0.9044824838638306	-0.08911943435668945	1.537011861801147	0.830292284488678	-0.06440354138612747	0.3823516666889191	0.1732373088598251	0.3483506739139557	1.227708339691162	0.7076677083969116	0.268955260515213	1.064902663230896	1.033452749252319	0.1572814881801605	1.11368203163147	1.434754371643066	0.01675507239997387	0.7661488056182861	1.177611470222473	0.2415058314800262	1.24327552318573	1.51862108707428	0.03962434455752373	0.7530915141105652	1.31169056892395	-0.07651647180318832	0.7696070075035095	1.250043511390686	0.08567288517951965	0.4171149134635925	0.2303427159786224	0.2790370583534241	0.8714913725852966	0.2827433943748474	0.3427061438560486	0.3860400021076202	0.1293144375085831	0.2428039312362671	0.779435396194458	1.242727279663086	0.3084398806095123	0.840268075466156	0.2650673985481262	0.2244800627231598	1.024671077728271	0.811356782913208	0.1881789863109589	1.050897836685181	1.2166827917099	0.05448304861783981	1.044172167778015	0.523995041847229	0.3312418162822723	0.7036275267601013	0.2421506941318512	0.3679823875427246	0.3140659630298615	0.01976881548762321	0.3004822134971619	0.8989253044128418	1.198495626449585	0.1405484527349472	0.8087590932846069	1.314842820167542	-0.005919304676353931	0.7290959358215332	1.339915037155151	0.0124000022187829	1.353689193725586	1.055336713790894	0.1622459143400192	1.096746563911438	0.944882333278656	0.1139245331287384	
